<svg width="865" height="162" viewBox="0 0 865 162" fill="none" xmlns="http://www.w3.org/2000/svg">
<g filter="url(#filter0_d_1_3)">
<path d="M34.7031 5.25H136.754L131.383 30.543H59.2148L52.1836 63.6484H115.367L110.094 88.6484H46.9102L34.1172 149H4.23438L34.7031 5.25ZM154.039 149H124.156L154.723 5.05469H184.605L154.039 149ZM317.32 5.05469L311.852 30.543H268.785L243.688 149H213.414L238.512 30.543H195.25L200.719 5.05469H317.32ZM335.582 104.566C335.126 111.142 335.875 116.057 337.828 119.312C341.474 125.237 349.221 128.199 361.07 128.199C368.167 128.199 374.091 127.418 378.844 125.855C387.893 122.861 393.264 117.294 394.957 109.156C395.999 104.404 394.697 100.725 391.051 98.1211C387.47 95.582 381.415 93.3359 372.887 91.3828L358.336 87.9648C344.078 84.5794 334.508 80.901 329.625 76.9297C321.357 70.2891 318.72 59.9049 321.715 45.7773C324.449 32.8867 331.415 22.1771 342.613 13.6484C353.811 5.11979 368.492 0.855469 386.656 0.855469C401.826 0.855469 413.902 4.89193 422.887 12.9648C431.871 20.9727 434.996 32.6263 432.262 47.9258H403.355C404.723 39.2669 402.281 33.1146 396.031 29.4688C391.865 27.0599 386.298 25.8555 379.332 25.8555C371.585 25.8555 365.042 27.418 359.703 30.543C354.43 33.668 351.207 38.0299 350.035 43.6289C348.928 48.7721 350.393 52.6133 354.43 55.1523C356.969 56.8451 362.796 58.8307 371.91 61.1094L395.445 67.0664C405.732 69.6706 413.186 73.1536 417.809 77.5156C424.97 84.2865 427.184 94.0846 424.449 106.91C421.65 120.061 414.293 130.999 402.379 139.723C390.465 148.382 375.328 152.711 356.969 152.711C338.219 152.711 324.384 148.447 315.465 139.918C306.546 131.324 303.681 119.54 306.871 104.566H335.582ZM550.523 5.05469H584.605L517.32 94.8984L505.895 149H475.816L487.242 94.8984L456.578 5.05469H492.027L508.531 67.75L550.523 5.05469ZM601.305 5.05469H632.848L668.785 105.543L690.172 5.05469H718.199L687.633 149H657.555L620.445 46.7539L598.766 149H570.738L601.305 5.05469ZM757.066 20.0938C771.324 8.24479 787.503 2.32031 805.602 2.32031C829.82 2.32031 845.836 10.263 853.648 26.1484C857.945 35.0677 859.345 44.0195 857.848 53.0039H827.77C827.314 46.1029 825.914 40.8945 823.57 37.3789C819.469 31.1289 812.047 28.0039 801.305 28.0039C790.367 28.0039 780.797 32.431 772.594 41.2852C764.391 50.0742 758.596 62.5417 755.211 78.6875C751.76 94.8333 752.509 106.943 757.457 115.016C762.405 123.023 770.022 127.027 780.309 127.027C790.855 127.027 799.645 123.577 806.676 116.676C810.517 112.965 814.228 107.398 817.809 99.9766H847.594C841.669 115.667 832.294 128.427 819.469 138.258C806.708 148.089 791.962 153.004 775.23 153.004C754.527 153.004 739.651 146.363 730.602 133.082C721.617 119.736 719.599 101.441 724.547 78.1992C729.885 53.069 740.725 33.7005 757.066 20.0938Z" fill="url(#paint0_linear_1_3)"/>
<path d="M34.7031 5.25V4.25C34.2308 4.25 33.8228 4.58054 33.7249 5.04265L34.7031 5.25ZM136.754 5.25L137.732 5.45772C137.795 5.16263 137.721 4.85503 137.531 4.6206C137.341 4.38618 137.056 4.25 136.754 4.25V5.25ZM131.383 30.543V31.543C131.855 31.543 132.263 31.2126 132.361 30.7507L131.383 30.543ZM59.2148 30.543V29.543C58.7426 29.543 58.3348 29.8733 58.2367 30.3352L59.2148 30.543ZM52.1836 63.6484L51.2054 63.4407C51.1427 63.7358 51.2166 64.0434 51.4065 64.2778C51.5964 64.5122 51.8819 64.6484 52.1836 64.6484V63.6484ZM115.367 63.6484L116.346 63.8548C116.408 63.5599 116.334 63.2526 116.144 63.0185C115.954 62.7844 115.669 62.6484 115.367 62.6484V63.6484ZM110.094 88.6484V89.6484C110.566 89.6484 110.975 89.3174 111.072 88.8548L110.094 88.6484ZM46.9102 88.6484V87.6484C46.4378 87.6484 46.0298 87.979 45.9319 88.4411L46.9102 88.6484ZM34.1172 149V150C34.5896 150 34.9975 149.669 35.0955 149.207L34.1172 149ZM4.23438 149L3.25611 148.793C3.19357 149.088 3.26754 149.395 3.45741 149.63C3.64728 149.864 3.93277 150 4.23438 150V149ZM34.7031 6.25H136.754V4.25H34.7031V6.25ZM135.776 5.04228L130.405 30.3352L132.361 30.7507L137.732 5.45772L135.776 5.04228ZM131.383 29.543H59.2148V31.543H131.383V29.543ZM58.2367 30.3352L51.2054 63.4407L53.1618 63.8562L60.193 30.7507L58.2367 30.3352ZM52.1836 64.6484H115.367V62.6484H52.1836V64.6484ZM114.389 63.442L109.115 88.442L111.072 88.8548L116.346 63.8548L114.389 63.442ZM110.094 87.6484H46.9102V89.6484H110.094V87.6484ZM45.9319 88.4411L33.1389 148.793L35.0955 149.207L47.8884 88.8558L45.9319 88.4411ZM34.1172 148H4.23438V150H34.1172V148ZM5.21264 149.207L35.6814 5.45735L33.7249 5.04265L3.25611 148.793L5.21264 149.207ZM154.039 149V150C154.511 150 154.919 149.67 155.017 149.208L154.039 149ZM124.156 149L123.178 148.792C123.115 149.087 123.189 149.395 123.379 149.629C123.569 149.864 123.855 150 124.156 150V149ZM154.723 5.05469V4.05469C154.25 4.05469 153.843 4.38504 153.744 4.84697L154.723 5.05469ZM184.605 5.05469L185.584 5.2624C185.646 4.96732 185.572 4.65971 185.383 4.42529C185.193 4.19087 184.907 4.05469 184.605 4.05469V5.05469ZM154.039 148H124.156V150H154.039V148ZM125.134 149.208L155.701 5.2624L153.744 4.84697L123.178 148.792L125.134 149.208ZM154.723 6.05469H184.605V4.05469H154.723V6.05469ZM183.627 4.84697L153.061 148.792L155.017 149.208L185.584 5.2624L183.627 4.84697ZM317.32 5.05469L318.298 5.26447C318.361 4.96916 318.288 4.66102 318.098 4.42611C317.908 4.1912 317.622 4.05469 317.32 4.05469V5.05469ZM311.852 30.543V31.543C312.323 31.543 312.73 31.2137 312.829 30.7528L311.852 30.543ZM268.785 30.543V29.543C268.313 29.543 267.905 29.8736 267.807 30.3357L268.785 30.543ZM243.688 149V150C244.16 150 244.568 149.669 244.666 149.207L243.688 149ZM213.414 149L212.436 148.793C212.373 149.088 212.447 149.395 212.637 149.63C212.827 149.864 213.112 150 213.414 150V149ZM238.512 30.543L239.49 30.7502C239.553 30.4552 239.479 30.1477 239.289 29.9134C239.099 29.6791 238.813 29.543 238.512 29.543V30.543ZM195.25 30.543L194.272 30.3332C194.209 30.6285 194.282 30.9366 194.472 31.1715C194.662 31.4065 194.948 31.543 195.25 31.543V30.543ZM200.719 5.05469V4.05469C200.247 4.05469 199.84 4.38395 199.741 4.8449L200.719 5.05469ZM316.343 4.8449L310.874 30.3332L312.829 30.7528L318.298 5.26447L316.343 4.8449ZM311.852 29.543H268.785V31.543H311.852V29.543ZM267.807 30.3357L242.709 148.793L244.666 149.207L269.763 30.7502L267.807 30.3357ZM243.688 148H213.414V150H243.688V148ZM214.392 149.207L239.49 30.7502L237.533 30.3357L212.436 148.793L214.392 149.207ZM238.512 29.543H195.25V31.543H238.512V29.543ZM196.228 30.7528L201.696 5.26447L199.741 4.8449L194.272 30.3332L196.228 30.7528ZM200.719 6.05469H317.32V4.05469H200.719V6.05469ZM335.582 104.566L336.58 104.636C336.599 104.359 336.502 104.087 336.313 103.884C336.124 103.681 335.859 103.566 335.582 103.566V104.566ZM337.828 119.312L336.971 119.827L336.976 119.837L337.828 119.312ZM378.844 125.855L379.156 126.805L379.158 126.805L378.844 125.855ZM394.957 109.156L393.98 108.942L393.978 108.953L394.957 109.156ZM391.051 98.1211L391.632 97.3074L391.629 97.3054L391.051 98.1211ZM372.887 91.3828L372.658 92.3563L372.663 92.3576L372.887 91.3828ZM358.336 87.9648L358.105 88.9378L358.107 88.9383L358.336 87.9648ZM329.625 76.9297L330.256 76.1539L330.251 76.15L329.625 76.9297ZM321.715 45.7773L320.737 45.5698L320.737 45.57L321.715 45.7773ZM342.613 13.6484L342.007 12.8529L342.613 13.6484ZM422.887 12.9648L422.218 13.7087L422.221 13.7114L422.887 12.9648ZM432.262 47.9258V48.9258C432.746 48.9258 433.161 48.5786 433.246 48.1017L432.262 47.9258ZM403.355 47.9258L402.368 47.7698C402.322 48.0587 402.405 48.3531 402.595 48.5754C402.785 48.7978 403.063 48.9258 403.355 48.9258V47.9258ZM396.031 29.4688L396.535 28.605L396.532 28.603L396.031 29.4688ZM359.703 30.543L359.198 29.6799L359.193 29.6827L359.703 30.543ZM350.035 43.6289L351.013 43.8393L351.014 43.8338L350.035 43.6289ZM354.43 55.1523L354.984 54.3203C354.977 54.3154 354.97 54.3106 354.962 54.3059L354.43 55.1523ZM371.91 61.1094L372.156 60.1399L372.153 60.1392L371.91 61.1094ZM395.445 67.0664L395.691 66.097L395.691 66.097L395.445 67.0664ZM417.809 77.5156L418.496 76.789L418.495 76.7883L417.809 77.5156ZM424.449 106.91L423.471 106.702L423.471 106.702L424.449 106.91ZM402.379 139.723L402.967 140.532L402.97 140.529L402.379 139.723ZM315.465 139.918L314.771 140.638L314.774 140.641L315.465 139.918ZM306.871 104.566V103.566C306.399 103.566 305.991 103.896 305.893 104.358L306.871 104.566ZM334.584 104.497C334.124 111.144 334.86 116.309 336.971 119.827L338.686 118.798C336.89 115.806 336.129 111.14 336.58 104.636L334.584 104.497ZM336.976 119.837C340.905 126.22 349.122 129.199 361.07 129.199V127.199C349.32 127.199 342.043 124.254 338.68 118.788L336.976 119.837ZM361.07 129.199C368.232 129.199 374.27 128.412 379.156 126.805L378.531 124.905C373.912 126.424 368.101 127.199 361.07 127.199V129.199ZM379.158 126.805C388.487 123.718 394.159 117.905 395.936 109.36L393.978 108.953C392.37 116.684 387.3 122.004 378.53 124.906L379.158 126.805ZM395.934 109.37C396.485 106.857 396.431 104.553 395.704 102.499C394.975 100.439 393.596 98.7104 391.632 97.3074L390.47 98.9348C392.151 100.136 393.246 101.548 393.819 103.167C394.394 104.791 394.471 106.703 393.98 108.942L395.934 109.37ZM391.629 97.3054C387.881 94.6475 381.665 92.3672 373.11 90.408L372.663 92.3576C381.166 94.3047 387.059 96.5166 390.472 98.9368L391.629 97.3054ZM373.115 90.4093L358.565 86.9913L358.107 88.9383L372.658 92.3563L373.115 90.4093ZM358.567 86.9919C344.311 83.6068 334.945 79.9674 330.256 76.1539L328.994 77.7055C334.071 81.8347 343.846 85.552 358.105 88.9378L358.567 86.9919ZM330.251 76.15C322.383 69.8306 319.744 59.8979 322.693 45.9847L320.737 45.57C317.696 59.912 320.331 70.7475 328.999 77.7094L330.251 76.15ZM322.693 45.9848C325.374 33.3452 332.198 22.8382 343.219 14.444L342.007 12.8529C330.633 21.5159 323.524 32.4282 320.737 45.5698L322.693 45.9848ZM343.219 14.444C354.198 6.0821 368.647 1.85547 386.656 1.85547V-0.144531C368.337 -0.144531 353.424 4.15748 342.007 12.8529L343.219 14.444ZM386.656 1.85547C401.644 1.85547 413.461 5.83979 422.218 13.7087L423.555 12.221C414.344 3.94406 402.007 -0.144531 386.656 -0.144531V1.85547ZM422.221 13.7114C430.871 21.4205 433.971 32.679 431.277 47.7498L433.246 48.1017C436.021 32.5736 432.872 20.5248 423.552 12.2183L422.221 13.7114ZM432.262 46.9258H403.355V48.9258H432.262V46.9258ZM404.343 48.0817C405.046 43.6311 404.784 39.7369 403.479 36.4485C402.168 33.1447 399.834 30.5294 396.535 28.605L395.527 30.3325C398.478 32.0539 400.49 34.3377 401.62 37.1862C402.757 40.0502 403.032 43.5616 402.368 47.7698L404.343 48.0817ZM396.532 28.603C392.16 26.0755 386.4 24.8555 379.332 24.8555V26.8555C386.196 26.8555 391.569 28.0443 395.531 30.3345L396.532 28.603ZM379.332 24.8555C371.451 24.8555 364.724 26.4452 359.198 29.68L360.208 31.406C365.359 28.3907 371.718 26.8555 379.332 26.8555V24.8555ZM359.193 29.6827C353.698 32.9392 350.29 37.5292 349.056 43.424L351.014 43.8338C352.124 38.5307 355.161 34.3967 360.213 31.4033L359.193 29.6827ZM349.058 43.4185C348.475 46.1268 348.551 48.5779 349.369 50.7235C350.191 52.878 351.726 54.633 353.897 55.9988L354.962 54.3059C353.097 53.1326 351.881 51.6975 351.238 50.0109C350.591 48.3154 350.489 46.2742 351.013 43.8393L349.058 43.4185ZM353.875 55.9844C355.258 56.9061 357.451 57.8592 360.382 58.8577C363.331 59.8628 367.096 60.9366 371.668 62.0795L372.153 60.1392C367.61 59.0035 363.904 57.9451 361.027 56.9646C358.13 55.9774 356.141 55.0913 354.984 54.3203L353.875 55.9844ZM371.665 62.0788L395.2 68.0358L395.691 66.097L372.156 60.1399L371.665 62.0788ZM395.2 68.0358C405.419 70.6229 412.681 74.0517 417.122 78.2429L418.495 76.7883C413.692 72.2556 406.045 68.7182 395.691 66.097L395.2 68.0358ZM417.122 78.2423C423.948 84.6959 426.16 94.0901 423.471 106.702L425.427 107.119C428.207 94.0792 425.993 83.877 418.496 76.789L417.122 78.2423ZM423.471 106.702C420.728 119.588 413.525 130.322 401.788 138.916L402.97 140.529C415.061 131.676 422.571 120.534 425.427 107.118L423.471 106.702ZM401.791 138.914C390.086 147.421 375.17 151.711 356.969 151.711V153.711C375.487 153.711 390.844 149.342 402.967 140.532L401.791 138.914ZM356.969 151.711C338.346 151.711 324.812 147.473 316.156 139.195L314.774 140.641C323.956 149.421 338.092 153.711 356.969 153.711V151.711ZM316.159 139.198C307.549 130.902 304.711 119.503 307.849 104.775L305.893 104.358C302.651 119.578 305.542 131.746 314.771 140.638L316.159 139.198ZM306.871 105.566H335.582V103.566H306.871V105.566ZM550.523 5.05469V4.05469C550.19 4.05469 549.878 4.22103 549.693 4.4982L550.523 5.05469ZM584.605 5.05469L585.406 5.65413C585.633 5.35106 585.669 4.94578 585.5 4.60716C585.33 4.26855 584.984 4.05469 584.605 4.05469V5.05469ZM517.32 94.8984L516.52 94.299C516.433 94.4154 516.372 94.5495 516.342 94.6918L517.32 94.8984ZM505.895 149V150C506.367 150 506.775 149.669 506.873 149.207L505.895 149ZM475.816 149L474.838 148.793C474.776 149.088 474.85 149.396 475.04 149.63C475.23 149.864 475.515 150 475.816 150V149ZM487.242 94.8984L488.221 95.1051C488.258 94.9289 488.247 94.7459 488.189 94.5754L487.242 94.8984ZM456.578 5.05469V4.05469C456.255 4.05469 455.953 4.21042 455.765 4.47288C455.577 4.73535 455.527 5.07229 455.632 5.3777L456.578 5.05469ZM492.027 5.05469L492.994 4.80012C492.879 4.36084 492.482 4.05469 492.027 4.05469V5.05469ZM508.531 67.75L507.564 68.0046C507.664 68.3848 507.978 68.6711 508.366 68.7362C508.753 68.8013 509.143 68.6332 509.362 68.3065L508.531 67.75ZM550.523 6.05469H584.605V4.05469H550.523V6.05469ZM583.805 4.45524L516.52 94.299L518.121 95.4979L585.406 5.65413L583.805 4.45524ZM516.342 94.6918L504.916 148.793L506.873 149.207L518.299 95.1051L516.342 94.6918ZM505.895 148H475.816V150H505.895V148ZM476.795 149.207L488.221 95.1051L486.264 94.6918L474.838 148.793L476.795 149.207ZM488.189 94.5754L457.525 4.73168L455.632 5.3777L486.296 95.2214L488.189 94.5754ZM456.578 6.05469H492.027V4.05469H456.578V6.05469ZM491.06 5.30925L507.564 68.0046L509.498 67.4954L492.994 4.80012L491.06 5.30925ZM509.362 68.3065L551.354 5.61118L549.693 4.4982L507.7 67.1935L509.362 68.3065ZM601.305 5.05469V4.05469C600.832 4.05469 600.425 4.38504 600.326 4.84697L601.305 5.05469ZM632.848 5.05469L633.789 4.71795C633.647 4.32016 633.27 4.05469 632.848 4.05469V5.05469ZM668.785 105.543L667.844 105.88C667.994 106.301 668.406 106.571 668.852 106.541C669.298 106.511 669.67 106.188 669.763 105.751L668.785 105.543ZM690.172 5.05469V4.05469C689.7 4.05469 689.292 4.3848 689.194 4.84652L690.172 5.05469ZM718.199 5.05469L719.177 5.2624C719.24 4.96732 719.166 4.65971 718.976 4.42529C718.786 4.19087 718.501 4.05469 718.199 4.05469V5.05469ZM687.633 149V150C688.105 150 688.513 149.67 688.611 149.208L687.633 149ZM657.555 149L656.615 149.341C656.758 149.737 657.134 150 657.555 150V149ZM620.445 46.7539L621.385 46.4127C621.233 45.9931 620.821 45.7253 620.376 45.7563C619.93 45.7874 619.56 46.1098 619.467 46.5465L620.445 46.7539ZM598.766 149V150C599.238 150 599.646 149.669 599.744 149.207L598.766 149ZM570.738 149L569.76 148.792C569.697 149.087 569.771 149.395 569.961 149.629C570.151 149.864 570.437 150 570.738 150V149ZM601.305 6.05469H632.848V4.05469H601.305V6.05469ZM631.906 5.39143L667.844 105.88L669.727 105.206L633.789 4.71795L631.906 5.39143ZM669.763 105.751L691.15 5.26285L689.194 4.84652L667.807 105.335L669.763 105.751ZM690.172 6.05469H718.199V4.05469H690.172V6.05469ZM717.221 4.84697L686.655 148.792L688.611 149.208L719.177 5.2624L717.221 4.84697ZM687.633 148H657.555V150H687.633V148ZM658.495 148.659L621.385 46.4127L619.505 47.0951L656.615 149.341L658.495 148.659ZM619.467 46.5465L597.787 148.793L599.744 149.207L621.424 46.9613L619.467 46.5465ZM598.766 148H570.738V150H598.766V148ZM571.716 149.208L602.283 5.2624L600.326 4.84697L569.76 148.792L571.716 149.208ZM757.066 20.0938L756.427 19.3247L756.427 19.3253L757.066 20.0938ZM853.648 26.1484L854.549 25.7144L854.546 25.7071L853.648 26.1484ZM857.848 53.0039V54.0039C858.336 54.0039 858.754 53.6505 858.834 53.1683L857.848 53.0039ZM827.77 53.0039L826.772 53.0698C826.806 53.5954 827.243 54.0039 827.77 54.0039V53.0039ZM823.57 37.3789L822.734 37.9276L822.738 37.9336L823.57 37.3789ZM772.594 41.2852L773.325 41.9675L773.327 41.9648L772.594 41.2852ZM755.211 78.6875L756.189 78.8965L756.19 78.8927L755.211 78.6875ZM757.457 115.016L756.604 115.538L756.606 115.541L757.457 115.016ZM806.676 116.676L805.981 115.957L805.975 115.962L806.676 116.676ZM817.809 99.9766V98.9766C817.425 98.9766 817.075 99.1963 816.908 99.542L817.809 99.9766ZM847.594 99.9766L848.529 100.33C848.645 100.023 848.603 99.678 848.416 99.4079C848.23 99.1378 847.922 98.9766 847.594 98.9766V99.9766ZM819.469 138.258L818.86 137.464L818.858 137.466L819.469 138.258ZM730.602 133.082L729.772 133.64L729.775 133.645L730.602 133.082ZM724.547 78.1992L725.525 78.4074L725.525 78.407L724.547 78.1992ZM757.706 20.8628C771.789 9.15915 787.742 3.32031 805.602 3.32031V1.32031C787.263 1.32031 770.86 7.33044 756.427 19.3247L757.706 20.8628ZM805.602 3.32031C829.602 3.32031 845.168 11.1716 852.751 26.5898L854.546 25.7071C846.503 9.35445 830.038 1.32031 805.602 1.32031V3.32031ZM852.748 26.5825C856.963 35.3328 858.322 44.0765 856.861 52.8395L858.834 53.1683C860.368 43.9626 858.928 34.8026 854.549 25.7144L852.748 26.5825ZM857.848 52.0039H827.77V54.0039H857.848V52.0039ZM828.767 52.938C828.307 45.9617 826.887 40.5505 824.402 36.8242L822.738 37.9336C824.942 41.2386 826.321 46.244 826.772 53.0698L828.767 52.938ZM824.406 36.8302C820.047 30.1874 812.225 27.0039 801.305 27.0039V29.0039C811.869 29.0039 818.89 32.0704 822.734 37.9276L824.406 36.8302ZM801.305 27.0039C790.058 27.0039 780.231 31.5706 771.86 40.6055L773.327 41.9648C781.363 33.2914 790.676 29.0039 801.305 29.0039V27.0039ZM771.863 40.6028C763.497 49.5661 757.642 62.2217 754.232 78.4823L756.19 78.8927C759.551 62.8616 765.284 50.5823 773.325 41.9675L771.863 40.6028ZM754.233 78.4785C750.766 94.7036 751.453 107.132 756.604 115.538L758.31 114.493C753.566 106.753 752.755 94.9631 756.189 78.8965L754.233 78.4785ZM756.606 115.541C761.756 123.875 769.714 128.027 780.309 128.027V126.027C770.33 126.027 763.054 122.172 758.308 114.49L756.606 115.541ZM780.309 128.027C791.097 128.027 800.144 124.488 807.376 117.389L805.975 115.962C799.145 122.666 790.614 126.027 780.309 126.027V128.027ZM807.371 117.395C811.33 113.57 815.102 107.888 818.709 100.411L816.908 99.542C813.354 106.909 809.704 112.36 805.981 115.957L807.371 117.395ZM817.809 100.977H847.594V98.9766H817.809V100.977ZM846.658 99.6233C840.797 115.146 831.532 127.751 818.86 137.464L820.077 139.051C833.056 129.103 842.542 116.187 848.529 100.33L846.658 99.6233ZM818.858 137.466C806.28 147.156 791.751 152.004 775.23 152.004V154.004C792.174 154.004 807.137 149.021 820.079 139.05L818.858 137.466ZM775.23 152.004C754.752 152.004 740.238 145.449 731.428 132.519L729.775 133.645C739.064 147.277 754.303 154.004 775.23 154.004V152.004ZM731.431 132.524C722.658 119.491 720.607 101.511 725.525 78.4074L723.569 77.991C718.591 101.372 720.577 119.981 729.772 133.64L731.431 132.524ZM725.525 78.407C730.827 53.4492 741.571 34.2973 757.706 20.8622L756.427 19.3253C739.879 33.1038 728.944 52.6888 723.569 77.9914L725.525 78.407Z" fill="#DABB86"/>
</g>
<defs>
<filter id="filter0_d_1_3" x="0.234375" y="0.855469" width="863.859" height="160.148" filterUnits="userSpaceOnUse" color-interpolation-filters="sRGB">
<feFlood flood-opacity="0" result="BackgroundImageFix"/>
<feColorMatrix in="SourceAlpha" type="matrix" values="0 0 0 0 0 0 0 0 0 0 0 0 0 0 0 0 0 0 127 0" result="hardAlpha"/>
<feOffset dy="4"/>
<feGaussianBlur stdDeviation="2"/>
<feComposite in2="hardAlpha" operator="out"/>
<feColorMatrix type="matrix" values="0 0 0 0 0 0 0 0 0 0 0 0 0 0 0 0 0 0 0.25 0"/>
<feBlend mode="normal" in2="BackgroundImageFix" result="effect1_dropShadow_1_3"/>
<feBlend mode="normal" in="SourceGraphic" in2="effect1_dropShadow_1_3" result="shape"/>
</filter>
<linearGradient id="paint0_linear_1_3" x1="440.5" y1="-35" x2="440.5" y2="201" gradientUnits="userSpaceOnUse">
<stop stop-color="#E47D0F"/>
<stop offset="1" stop-color="#EBA326"/>
</linearGradient>
</defs>
</svg>
